<?xml version="1.0" standalone="no"?>
<!DOCTYPE svg PUBLIC "-//W3C//DTD SVG 20010904//EN"
 "http://www.w3.org/TR/2001/REC-SVG-20010904/DTD/svg10.dtd">
<svg version="1.0" xmlns="http://www.w3.org/2000/svg"
 width="256.000000pt" height="256.000000pt" viewBox="0 0 256.000000 256.000000"
 preserveAspectRatio="xMidYMid meet">
<metadata>
Created by potrace 1.11, written by Peter Selinger 2001-2013
</metadata>
<g transform="translate(0.000000,256.000000) scale(0.100000,-0.100000)"
fill="#000000" stroke="none">
<path d="M72 2543 c-19 -9 -41 -32 -53 -54 -18 -37 -19 -70 -19 -1209 0 -1256
-2 -1209 50 -1255 22 -20 38 -20 1214 -23 655 -1 1200 0 1212 2 29 8 61 38 74
70 7 18 10 416 10 1209 0 1168 0 1182 -20 1215 -40 65 29 62 -1262 62 -1064 0
-1176 -2 -1206 -17z"/>
</g>
</svg>
